<svg width="40" height="40" viewBox="0 0 497 496" fill="none" xmlns="http://www.w3.org/2000/svg">
<g filter="url(#filter0_d_603_16)">
<path fill-rule="evenodd" clip-rule="evenodd" d="M475.549 310.656C472.297 257.984 268.357 306.092 271.315 412.186C289.953 475.767 336.544 335.507 475.549 310.656ZM397.406 92.9258C404.438 118.638 396.748 171.439 360.083 165.891C360.23 153.184 356.092 140.929 350.081 129.868C358.405 113.073 379.502 97.8819 397.406 92.9258ZM380.588 289.443C391.125 279.167 399.771 266.836 403.881 254.24C405.248 250.087 404.151 245.716 401.392 242.705C416.93 231.1 430.701 214.58 436.237 197.62C437.792 192.88 436.143 187.854 432.474 184.89C424.984 178.82 415.345 174.04 404.79 170.771C425.154 146.254 429.175 103.313 415.644 74.9173C413.672 70.5177 409.087 67.6237 404.004 68.0397C379.525 70.0725 351.149 87.3838 335.394 109.218C326.542 99.3699 316.204 91.3265 305.961 86.4348C299.733 83.4587 293.176 81.256 287.746 87.4424C275.906 100.876 268.68 121.163 266.602 140.448C262.657 139.605 258.8 140.179 255.39 144.069C245.152 155.686 238.366 172.423 235.373 189.207C251.604 195.358 262.945 229.735 265.598 245.177C284.253 250.157 296.322 287.873 298.676 304.493C311.115 302.847 324.974 303.661 336.908 307.703C350.744 300.181 365.513 294.042 380.588 289.443ZM298.764 279.185C281.359 252.77 344.123 236.536 378.128 254.896C371.207 267.41 358.863 279.261 346.477 286.274C331.126 280.339 315.001 278.025 298.764 279.185ZM285.815 243.9C278.812 230.854 268.551 218.704 257.004 209.629C256.752 195.446 260.679 178.861 267.923 166.565C280.995 174.421 310.199 205.546 303.196 229.94C296.498 233.326 290.481 238.007 285.815 243.9ZM335.558 173.284C328.397 176.905 322.603 181.638 318.159 187.274C310.833 174.011 301.388 162.452 289.366 153.003C289.096 138.82 293.029 122.235 300.273 109.938C317.772 120.466 342.426 150.232 335.558 173.284ZM410.479 198.276C403.569 210.772 391.213 222.652 378.839 229.641C363.946 223.894 347.022 221.264 331.091 222.547C326.066 181.328 387.937 186.05 410.479 198.276ZM62.4153 92.9258C55.3829 118.638 63.0728 171.439 99.7376 165.891C99.5908 153.184 103.729 140.929 109.74 129.868C101.416 113.073 80.3192 97.8819 62.4153 92.9258ZM145.378 342.718C160.247 336.761 177.429 334.2 193.495 335.712C210.519 309.549 148.125 293.128 114.049 311.529C120.911 323.937 133.103 335.694 145.378 342.718ZM249.074 382.227C258.313 449.006 145.618 444.003 120.653 367.505C119.291 363.357 120.395 358.981 123.154 355.97C107.609 344.359 93.8322 327.838 88.2967 310.873C86.929 306.719 88.0326 302.349 90.7974 299.332C75.2592 287.726 61.482 271.212 55.9406 254.24C54.5728 250.087 55.6706 245.716 58.4295 242.705C42.8913 231.1 29.12 214.58 23.5845 197.62C22.0289 192.88 23.6784 187.854 27.3472 184.89C34.8375 178.82 44.4762 174.04 55.0307 170.771C34.6672 146.254 30.6462 103.313 44.1769 74.9173C46.1492 70.5177 50.7338 67.6237 55.8173 68.0397C80.2957 70.0725 108.672 87.3838 124.427 109.218C133.279 99.3699 143.617 91.3265 153.86 86.4348C160.088 83.4587 166.645 81.256 172.075 87.4424C183.915 100.876 191.141 121.163 193.219 140.448C197.164 139.605 201.021 140.179 204.431 144.069C216.271 157.508 223.497 177.795 225.575 197.081C229.52 196.237 233.371 196.805 236.787 200.695C248.622 214.134 255.848 234.427 257.932 253.719C261.865 252.875 265.727 253.444 269.144 257.333C300.038 292.349 302.351 370.37 249.074 382.227ZM146.387 368.179C160.3 393.598 204.249 426.182 226.292 391.67C226.497 351.026 171.77 354.441 146.387 368.179ZM161.057 279.185C178.462 252.77 115.698 236.536 81.6928 254.896C88.6137 267.41 100.959 279.261 113.345 286.274C128.695 280.339 144.82 278.025 161.057 279.185ZM206.386 300.539C213.618 287.316 223.269 275.617 235.173 266.267C235.431 252.073 231.504 235.5 224.255 223.191C206.756 233.719 182.107 263.573 188.981 286.566C195.65 289.941 201.725 294.657 206.386 300.539ZM174.006 243.9C181.009 230.854 191.27 218.704 202.817 209.629C203.069 195.446 199.142 178.861 191.899 166.565C178.826 174.421 149.622 205.546 156.625 229.94C163.323 233.326 169.34 238.007 174.006 243.9ZM124.263 173.284C131.425 176.905 137.218 181.638 141.662 187.274C148.988 174.011 158.433 162.452 170.455 153.003C170.725 138.82 166.792 122.235 159.548 109.938C142.049 120.466 117.395 150.232 124.263 173.284ZM49.3426 198.276C56.2517 210.772 68.6083 222.652 80.9825 229.641C95.875 223.894 112.799 221.264 128.73 222.547C133.755 181.328 71.8838 186.05 49.3426 198.276ZM256.64 279.812C239.323 290.21 214.422 320.111 221.337 343.205C229.092 347.136 235.866 352.806 240.761 360.012C277.215 355.068 270.247 302.659 256.64 279.812Z" fill="#F5DEB3"/>
</g>
<defs>
<filter id="filter0_d_603_16" x="-4" y="0" width="505" height="504" filterUnits="userSpaceOnUse" color-interpolation-filters="sRGB">
<feFlood flood-opacity="0" result="BackgroundImageFix"/>
<feColorMatrix in="SourceAlpha" type="matrix" values="0 0 0 0 0 0 0 0 0 0 0 0 0 0 0 0 0 0 127 0" result="hardAlpha"/>
<feOffset dy="4"/>
<feGaussianBlur stdDeviation="2"/>
<feComposite in2="hardAlpha" operator="out"/>
<feColorMatrix type="matrix" values="0 0 0 0 0 0 0 0 0 0 0 0 0 0 0 0 0 0 0.25 0"/>
<feBlend mode="normal" in2="BackgroundImageFix" result="effect1_dropShadow_603_16"/>
<feBlend mode="normal" in="SourceGraphic" in2="effect1_dropShadow_603_16" result="shape"/>
</filter>
</defs>
</svg>
